<svg xmlns="http://www.w3.org/2000/svg" xmlns:xlink="http://www.w3.org/1999/xlink" width="500" zoomAndPan="magnify" viewBox="0 0 375 374.999991" height="500" preserveAspectRatio="xMidYMid meet" version="1.0"><defs><g/><clipPath id="b046080700"><path d="M 91.132812 171.171875 L 283.867188 171.171875 L 283.867188 205.101562 L 91.132812 205.101562 Z M 91.132812 171.171875 " clip-rule="nonzero"/></clipPath></defs><rect x="-37.5" width="450" fill="#ffffff" y="-37.499999" height="449.999989" fill-opacity="1"/><rect x="-37.5" width="450" fill="#ffffff" y="-37.499999" height="449.999989" fill-opacity="1"/><rect x="-37.5" width="450" fill="#fbfdfa" y="-37.499999" height="449.999989" fill-opacity="1"/><g fill="#1f2122" fill-opacity="1"><g transform="translate(91.704213, 236.98768)"><g><path d="M 6.03125 0 L 6.03125 -1.40625 L 9.828125 -1.40625 C 13.472656 -1.40625 16.019531 -2.175781 17.46875 -3.71875 C 18.925781 -5.257812 19.65625 -8.1875 19.65625 -12.5 L 19.65625 -88.015625 C 19.65625 -92.128906 18.925781 -94.957031 17.46875 -96.5 C 16.019531 -98.050781 13.472656 -98.828125 9.828125 -98.828125 L 6.03125 -98.828125 L 6.03125 -100.234375 L 46.46875 -100.234375 C 60.6875 -100.234375 71.585938 -95.71875 79.171875 -86.6875 C 86.753906 -77.65625 90.546875 -65.179688 90.546875 -49.265625 C 90.546875 -33.921875 86.941406 -21.875 79.734375 -13.125 C 72.523438 -4.375 61.53125 0 46.75 0 Z M 29.203125 -1.40625 L 44.078125 -1.40625 C 56.804688 -1.40625 66.023438 -5.238281 71.734375 -12.90625 C 77.441406 -20.582031 80.296875 -32.703125 80.296875 -49.265625 C 80.296875 -65.648438 77.441406 -78.003906 71.734375 -86.328125 C 66.023438 -94.660156 56.851562 -98.828125 44.21875 -98.828125 L 29.203125 -98.828125 Z M 29.203125 -1.40625 "/></g></g></g><g fill="#1f2122" fill-opacity="1"><g transform="translate(190.522681, 236.98768)"><g><path d="M 43.65625 0 L 11.515625 -91.671875 C 10.578125 -94.566406 9.5 -96.484375 8.28125 -97.421875 C 7.0625 -98.359375 4.910156 -98.828125 1.828125 -98.828125 L 0 -98.828125 L 0 -100.234375 L 34.8125 -100.234375 L 34.8125 -98.828125 L 29.625 -98.828125 C 26.34375 -98.828125 24.140625 -98.453125 23.015625 -97.703125 C 21.898438 -96.953125 21.34375 -95.78125 21.34375 -94.1875 C 21.34375 -92.96875 21.644531 -91.351562 22.25 -89.34375 C 22.851562 -87.332031 23.390625 -85.625 23.859375 -84.21875 L 40.84375 -35.65625 C 42.625 -30.226562 44.191406 -25.40625 45.546875 -21.1875 C 46.910156 -16.976562 48.148438 -13.003906 49.265625 -9.265625 C 50.484375 -13.285156 51.769531 -17.378906 53.125 -21.546875 C 54.488281 -25.710938 56.054688 -30.414062 57.828125 -35.65625 L 73.84375 -83.65625 C 74.21875 -85.0625 74.726562 -86.769531 75.375 -88.78125 C 76.03125 -90.800781 76.359375 -92.460938 76.359375 -93.765625 C 76.359375 -95.640625 75.773438 -96.953125 74.609375 -97.703125 C 73.441406 -98.453125 71.171875 -98.828125 67.796875 -98.828125 L 60.359375 -98.828125 L 60.359375 -100.234375 L 91.671875 -100.234375 L 91.671875 -98.828125 L 87.453125 -98.828125 C 84.554688 -98.828125 82.5 -98.238281 81.28125 -97.0625 C 80.0625 -95.894531 78.84375 -93.488281 77.625 -89.84375 L 47.59375 0 Z M 43.65625 0 "/></g></g></g><g clip-path="url(#b046080700)"><path fill="#fbfdfa" d="M 91.132812 171.171875 L 283.867188 171.171875 L 283.867188 205.101562 L 91.132812 205.101562 Z M 91.132812 171.171875 " fill-opacity="1" fill-rule="nonzero"/></g><g fill="#1f2122" fill-opacity="1"><g transform="translate(136.32691, 192.66047)"><g><path d="M 0.5625 0 L 0.5625 -0.125 L 0.90625 -0.125 C 1.25 -0.125 1.488281 -0.195312 1.625 -0.34375 C 1.757812 -0.488281 1.828125 -0.757812 1.828125 -1.15625 L 1.828125 -8.171875 C 1.828125 -8.554688 1.757812 -8.816406 1.625 -8.953125 C 1.488281 -9.097656 1.25 -9.171875 0.90625 -9.171875 L 0.5625 -9.171875 L 0.5625 -9.296875 L 4.3125 -9.296875 C 5.632812 -9.296875 6.644531 -8.878906 7.34375 -8.046875 C 8.050781 -7.210938 8.40625 -6.054688 8.40625 -4.578125 C 8.40625 -3.148438 8.066406 -2.03125 7.390625 -1.21875 C 6.722656 -0.40625 5.707031 0 4.34375 0 Z M 2.703125 -0.125 L 4.09375 -0.125 C 5.269531 -0.125 6.125 -0.476562 6.65625 -1.1875 C 7.1875 -1.90625 7.453125 -3.035156 7.453125 -4.578125 C 7.453125 -6.097656 7.1875 -7.242188 6.65625 -8.015625 C 6.125 -8.785156 5.273438 -9.171875 4.109375 -9.171875 L 2.703125 -9.171875 Z M 2.703125 -0.125 "/></g></g></g><g fill="#1f2122" fill-opacity="1"><g transform="translate(150.389987, 192.66047)"><g><path d="M 0.5625 0 L 0.5625 -0.125 L 0.90625 -0.125 C 1.25 -0.125 1.488281 -0.195312 1.625 -0.34375 C 1.757812 -0.488281 1.828125 -0.757812 1.828125 -1.15625 L 1.828125 -8.171875 C 1.828125 -8.554688 1.757812 -8.816406 1.625 -8.953125 C 1.488281 -9.097656 1.25 -9.171875 0.90625 -9.171875 L 0.5625 -9.171875 L 0.5625 -9.296875 L 6.75 -9.296875 L 6.828125 -7.09375 L 6.703125 -7.09375 L 6.65625 -7.828125 C 6.632812 -8.335938 6.53125 -8.6875 6.34375 -8.875 C 6.164062 -9.070312 5.816406 -9.171875 5.296875 -9.171875 L 2.703125 -9.171875 L 2.703125 -4.9375 L 5.9375 -4.9375 L 5.9375 -4.8125 L 2.703125 -4.8125 L 2.703125 -0.125 L 5.6875 -0.125 C 6.21875 -0.125 6.578125 -0.21875 6.765625 -0.40625 C 6.960938 -0.601562 7.078125 -0.957031 7.109375 -1.46875 L 7.140625 -2.21875 L 7.265625 -2.21875 L 7.1875 0 Z M 0.5625 0 "/></g></g></g><g fill="#1f2122" fill-opacity="1"><g transform="translate(163.176007, 192.66047)"><g><path d="M 4.046875 0 L 1.0625 -8.515625 C 0.976562 -8.773438 0.878906 -8.945312 0.765625 -9.03125 C 0.648438 -9.125 0.453125 -9.171875 0.171875 -9.171875 L 0 -9.171875 L 0 -9.296875 L 3.234375 -9.296875 L 3.234375 -9.171875 L 2.75 -9.171875 C 2.445312 -9.171875 2.242188 -9.132812 2.140625 -9.0625 C 2.035156 -9 1.984375 -8.894531 1.984375 -8.75 C 1.984375 -8.632812 2.007812 -8.484375 2.0625 -8.296875 C 2.125 -8.109375 2.175781 -7.945312 2.21875 -7.8125 L 3.796875 -3.3125 C 3.960938 -2.800781 4.109375 -2.347656 4.234375 -1.953125 C 4.359375 -1.566406 4.472656 -1.203125 4.578125 -0.859375 C 4.691406 -1.234375 4.8125 -1.613281 4.9375 -2 C 5.0625 -2.382812 5.207031 -2.820312 5.375 -3.3125 L 6.859375 -7.765625 C 6.890625 -7.898438 6.9375 -8.054688 7 -8.234375 C 7.0625 -8.421875 7.09375 -8.578125 7.09375 -8.703125 C 7.09375 -8.878906 7.035156 -9 6.921875 -9.0625 C 6.816406 -9.132812 6.609375 -9.171875 6.296875 -9.171875 L 5.609375 -9.171875 L 5.609375 -9.296875 L 8.515625 -9.296875 L 8.515625 -9.171875 L 8.125 -9.171875 C 7.851562 -9.171875 7.660156 -9.113281 7.546875 -9 C 7.429688 -8.894531 7.316406 -8.675781 7.203125 -8.34375 L 4.421875 0 Z M 4.046875 0 "/></g></g></g><g fill="#1f2122" fill-opacity="1"><g transform="translate(176.678735, 192.66047)"><g><path d="M -0.03125 0 L -0.03125 -0.125 L 0.296875 -0.125 C 0.585938 -0.125 0.789062 -0.175781 0.90625 -0.28125 C 1.03125 -0.394531 1.15625 -0.625 1.28125 -0.96875 L 4.171875 -9.296875 L 4.59375 -9.296875 L 7.734375 -0.796875 C 7.828125 -0.523438 7.921875 -0.34375 8.015625 -0.25 C 8.117188 -0.164062 8.285156 -0.125 8.515625 -0.125 L 8.734375 -0.125 L 8.734375 0 L 5.546875 0 L 5.546875 -0.125 L 5.9375 -0.125 C 6.269531 -0.125 6.492188 -0.160156 6.609375 -0.234375 C 6.722656 -0.304688 6.78125 -0.425781 6.78125 -0.59375 C 6.78125 -0.695312 6.753906 -0.835938 6.703125 -1.015625 C 6.648438 -1.203125 6.601562 -1.359375 6.5625 -1.484375 L 5.859375 -3.375 L 2.265625 -3.375 L 1.609375 -1.53125 C 1.578125 -1.414062 1.53125 -1.265625 1.46875 -1.078125 C 1.414062 -0.898438 1.390625 -0.753906 1.390625 -0.640625 C 1.390625 -0.453125 1.460938 -0.316406 1.609375 -0.234375 C 1.753906 -0.160156 2.03125 -0.125 2.4375 -0.125 L 2.9375 -0.125 L 2.9375 0 Z M 2.3125 -3.5 L 5.828125 -3.5 L 4.828125 -6.296875 C 4.679688 -6.691406 4.535156 -7.09375 4.390625 -7.5 C 4.253906 -7.914062 4.140625 -8.28125 4.046875 -8.59375 C 3.953125 -8.300781 3.835938 -7.960938 3.703125 -7.578125 C 3.566406 -7.203125 3.441406 -6.832031 3.328125 -6.46875 Z M 2.3125 -3.5 "/></g></g></g><g fill="#1f2122" fill-opacity="1"><g transform="translate(190.402998, 192.66047)"><g><path d="M 2 0 L 2 -0.125 L 2.46875 -0.125 C 2.8125 -0.125 3.050781 -0.195312 3.1875 -0.34375 C 3.320312 -0.488281 3.390625 -0.757812 3.390625 -1.15625 L 3.390625 -9.140625 L 1.859375 -9.140625 C 1.347656 -9.140625 1 -9.046875 0.8125 -8.859375 C 0.625 -8.671875 0.519531 -8.316406 0.5 -7.796875 L 0.453125 -7.171875 L 0.328125 -7.171875 L 0.40625 -9.296875 L 7.265625 -9.296875 L 7.34375 -7.171875 L 7.21875 -7.171875 L 7.1875 -7.796875 C 7.15625 -8.316406 7.046875 -8.671875 6.859375 -8.859375 C 6.679688 -9.046875 6.335938 -9.140625 5.828125 -9.140625 L 4.265625 -9.140625 L 4.265625 -1.15625 C 4.265625 -0.757812 4.332031 -0.488281 4.46875 -0.34375 C 4.601562 -0.195312 4.84375 -0.125 5.1875 -0.125 L 5.65625 -0.125 L 5.65625 0 Z M 2 0 "/></g></g></g><g fill="#1f2122" fill-opacity="1"><g transform="translate(202.980518, 192.66047)"><g><path d="M 4.671875 0.125 C 3.785156 0.125 3.050781 -0.0664062 2.46875 -0.453125 C 1.894531 -0.847656 1.460938 -1.398438 1.171875 -2.109375 C 0.890625 -2.828125 0.75 -3.679688 0.75 -4.671875 C 0.75 -5.660156 0.890625 -6.507812 1.171875 -7.21875 C 1.460938 -7.925781 1.898438 -8.472656 2.484375 -8.859375 C 3.066406 -9.253906 3.796875 -9.453125 4.671875 -9.453125 C 5.984375 -9.453125 6.960938 -9.019531 7.609375 -8.15625 C 8.265625 -7.300781 8.59375 -6.140625 8.59375 -4.671875 C 8.59375 -3.703125 8.445312 -2.859375 8.15625 -2.140625 C 7.875 -1.421875 7.441406 -0.863281 6.859375 -0.46875 C 6.273438 -0.0703125 5.546875 0.125 4.671875 0.125 Z M 4.671875 0 C 5.710938 0 6.460938 -0.382812 6.921875 -1.15625 C 7.390625 -1.925781 7.625 -3.097656 7.625 -4.671875 C 7.625 -6.242188 7.394531 -7.410156 6.9375 -8.171875 C 6.476562 -8.929688 5.722656 -9.3125 4.671875 -9.3125 C 3.660156 -9.3125 2.910156 -8.929688 2.421875 -8.171875 C 1.929688 -7.410156 1.6875 -6.242188 1.6875 -4.671875 C 1.6875 -3.097656 1.929688 -1.925781 2.421875 -1.15625 C 2.910156 -0.382812 3.660156 0 4.671875 0 Z M 4.671875 0 "/></g></g></g><g fill="#1f2122" fill-opacity="1"><g transform="translate(217.213002, 192.66047)"><g><path d="M 0.5625 0 L 0.5625 -0.125 L 0.90625 -0.125 C 1.25 -0.125 1.488281 -0.195312 1.625 -0.34375 C 1.757812 -0.488281 1.828125 -0.757812 1.828125 -1.15625 L 1.828125 -8.171875 C 1.828125 -8.554688 1.757812 -8.816406 1.625 -8.953125 C 1.488281 -9.097656 1.25 -9.171875 0.90625 -9.171875 L 0.5625 -9.171875 L 0.5625 -9.296875 L 4.046875 -9.296875 C 5.085938 -9.296875 5.84375 -9.054688 6.3125 -8.578125 C 6.789062 -8.109375 7.03125 -7.453125 7.03125 -6.609375 C 7.03125 -6.078125 6.925781 -5.59375 6.71875 -5.15625 C 6.507812 -4.71875 6.164062 -4.363281 5.6875 -4.09375 C 5.21875 -3.832031 4.570312 -3.703125 3.75 -3.703125 L 2.703125 -3.703125 L 2.703125 -1.15625 C 2.703125 -0.757812 2.769531 -0.488281 2.90625 -0.34375 C 3.039062 -0.195312 3.28125 -0.125 3.625 -0.125 L 4.078125 -0.125 L 4.078125 0 Z M 2.703125 -3.828125 L 3.671875 -3.828125 C 4.585938 -3.828125 5.222656 -4.066406 5.578125 -4.546875 C 5.929688 -5.035156 6.109375 -5.710938 6.109375 -6.578125 C 6.109375 -7.472656 5.9375 -8.128906 5.59375 -8.546875 C 5.257812 -8.960938 4.703125 -9.171875 3.921875 -9.171875 L 2.703125 -9.171875 Z M 2.703125 -3.828125 "/></g></g></g><g fill="#1f2122" fill-opacity="1"><g transform="translate(229.725358, 192.66047)"><g><path d="M 0.5625 0 L 0.5625 -0.125 L 0.90625 -0.125 C 1.25 -0.125 1.488281 -0.195312 1.625 -0.34375 C 1.757812 -0.488281 1.828125 -0.757812 1.828125 -1.15625 L 1.828125 -8.171875 C 1.828125 -8.554688 1.757812 -8.816406 1.625 -8.953125 C 1.488281 -9.097656 1.25 -9.171875 0.90625 -9.171875 L 0.5625 -9.171875 L 0.5625 -9.296875 L 3.96875 -9.296875 L 3.96875 -9.171875 L 3.625 -9.171875 C 3.28125 -9.171875 3.039062 -9.097656 2.90625 -8.953125 C 2.769531 -8.816406 2.703125 -8.546875 2.703125 -8.140625 L 2.703125 -1.15625 C 2.703125 -0.757812 2.769531 -0.488281 2.90625 -0.34375 C 3.039062 -0.195312 3.28125 -0.125 3.625 -0.125 L 3.96875 -0.125 L 3.96875 0 Z M 0.5625 0 "/></g></g></g><g fill="#1f2122" fill-opacity="1"><g transform="translate(239.14931, 192.66047)"><g><path d="M -0.03125 0 L -0.03125 -0.125 L 0.296875 -0.125 C 0.585938 -0.125 0.789062 -0.175781 0.90625 -0.28125 C 1.03125 -0.394531 1.15625 -0.625 1.28125 -0.96875 L 4.171875 -9.296875 L 4.59375 -9.296875 L 7.734375 -0.796875 C 7.828125 -0.523438 7.921875 -0.34375 8.015625 -0.25 C 8.117188 -0.164062 8.285156 -0.125 8.515625 -0.125 L 8.734375 -0.125 L 8.734375 0 L 5.546875 0 L 5.546875 -0.125 L 5.9375 -0.125 C 6.269531 -0.125 6.492188 -0.160156 6.609375 -0.234375 C 6.722656 -0.304688 6.78125 -0.425781 6.78125 -0.59375 C 6.78125 -0.695312 6.753906 -0.835938 6.703125 -1.015625 C 6.648438 -1.203125 6.601562 -1.359375 6.5625 -1.484375 L 5.859375 -3.375 L 2.265625 -3.375 L 1.609375 -1.53125 C 1.578125 -1.414062 1.53125 -1.265625 1.46875 -1.078125 C 1.414062 -0.898438 1.390625 -0.753906 1.390625 -0.640625 C 1.390625 -0.453125 1.460938 -0.316406 1.609375 -0.234375 C 1.753906 -0.160156 2.03125 -0.125 2.4375 -0.125 L 2.9375 -0.125 L 2.9375 0 Z M 2.3125 -3.5 L 5.828125 -3.5 L 4.828125 -6.296875 C 4.679688 -6.691406 4.535156 -7.09375 4.390625 -7.5 C 4.253906 -7.914062 4.140625 -8.28125 4.046875 -8.59375 C 3.953125 -8.300781 3.835938 -7.960938 3.703125 -7.578125 C 3.566406 -7.203125 3.441406 -6.832031 3.328125 -6.46875 Z M 2.3125 -3.5 "/></g></g></g></svg>